<svg width="320" height="258" viewBox="0 0 320 258" fill="none" xmlns="http://www.w3.org/2000/svg"><path d="M29.4971 91.9339L90.2493 142.13L51.7195 210.876L289.603 166.431L228.851 116.235L267.381 47.489L29.4971 91.9339Z" fill="#F24E1E"></path><path d="M144.17 141.546C149.006 140.643 150.684 137.864 150.156 135.033C149.587 131.989 146.928 130.826 143.419 130.993L141.314 131.093C139.934 131.156 139.041 130.688 138.86 129.72C138.671 128.706 139.165 127.564 141.289 127.167C143.388 126.775 144.694 127.752 145.476 129.193L148.563 127.42C147.428 125.263 144.978 123.524 140.755 124.312C136.462 125.114 134.666 127.916 135.159 130.558C135.732 133.625 138.03 134.685 141.298 134.539L143.404 134.438C145.438 134.351 146.283 134.95 146.472 135.965C146.692 137.144 145.972 138.256 143.637 138.692C141.042 139.177 139.465 137.664 138.831 136.098L135.669 137.861C136.812 140.455 139.569 142.406 144.17 141.546ZM161.311 138.345C165.605 137.543 168.252 134.46 167.445 130.143L165.564 120.069L161.978 120.739L163.754 130.247C164.247 132.889 163.428 134.775 160.738 135.278C158.19 135.754 156.625 134.435 156.11 131.674L154.334 122.167L150.748 122.837L152.63 132.91C153.414 137.11 156.781 139.191 161.311 138.345ZM172.43 135.877L176.016 135.208L174.932 129.404L178.777 128.686C182.292 128.029 184.33 125.475 183.718 122.196C183.105 118.917 180.292 117.318 176.753 117.979L169.345 119.363L172.43 135.877ZM174.376 126.431L173.486 121.666L176.671 121.071C178.37 120.754 179.717 121.43 179.99 122.892C180.276 124.426 179.26 125.519 177.561 125.836L174.376 126.431Z" fill="black"></path></svg>