<svg width="242" height="242" viewBox="0 0 242 242" fill="none" xmlns="http://www.w3.org/2000/svg"><path fill-rule="evenodd" clip-rule="evenodd" d="M93.8593 93.8596C77.0403 67.5333 72.3586 42.362 84.2302 30.4904C100.632 14.0883 142.421 29.2843 177.568 64.4315C212.716 99.5787 227.911 141.368 211.509 157.77C199.638 169.641 174.467 164.959 148.14 148.14C164.959 174.467 169.641 199.638 157.769 211.51C141.367 227.912 99.5784 212.716 64.4312 177.569C29.284 142.421 14.0881 100.632 30.4901 84.2305C42.3618 72.3588 67.533 77.0406 93.8593 93.8596Z" fill="#FFC700"></path><path d="M107.206 153.179L109.785 150.599L97.9057 138.72L95.3262 141.299L107.206 153.179ZM116.636 143.749L125.613 134.771L123.424 132.582L117.026 138.98L107.336 129.29L104.756 131.869L116.636 143.749ZM127.209 133.175L129.788 130.596L117.909 118.716L115.33 121.296L127.209 133.175ZM140.366 120.018L143.608 116.776L131.304 114.825L131.151 105.474L127.689 108.936L128.283 118.219L125.263 115.198L123.345 113.28L120.765 115.86L132.645 127.739L135.224 125.16L131.423 121.358L131.372 118.423L140.366 120.018ZM144.826 115.558L153.803 106.581L151.665 104.443L145.267 110.841L142.348 107.922L147.185 103.085L145.08 100.981L140.244 105.817L137.664 103.238L144.062 96.8398L141.924 94.7016L132.946 103.679L144.826 115.558Z" fill="black"></path></svg>