<svg width="138" height="158" viewBox="0 0 138 158" fill="none" xmlns="http://www.w3.org/2000/svg"><path d="M0 158L-3.86327e-06 69.6187C-5.52275e-06 31.6541 30.7764 0.877699 68.741 0.877698C106.706 0.877696 137.482 31.6541 137.482 69.6187L137.482 158L0 158Z" fill="#F24E1E"></path><path d="M76 106.434L76 102.786L69.16 102.786L59.2 96.8101L59.2 100.914L62.416 102.69L65.704 104.514C65.2 104.826 64.168 105.426 62.464 106.41L59.2 108.306L59.2 112.53L69.16 106.434L76 106.434ZM76 94.5113L76 81.8153L72.976 81.8153L72.976 90.8633L68.848 90.8633L68.848 84.0233L65.872 84.0233L65.872 90.8633L62.224 90.8633L62.224 81.8153L59.2 81.8153L59.2 94.5113L76 94.5113ZM76.384 72.3316C76.384 67.4116 73.96 65.2516 71.08 65.2516C67.984 65.2516 66.352 67.6516 65.872 71.1316L65.584 73.2196C65.392 74.5876 64.768 75.3796 63.784 75.3796C62.752 75.3796 61.72 74.6836 61.72 72.5236C61.72 70.3876 62.92 69.2836 64.48 68.7796L63.304 65.4196C60.976 66.1396 58.816 68.2276 58.816 72.5236C58.816 76.8916 61.24 79.1716 63.928 79.1716C67.048 79.1716 68.512 77.1076 68.968 73.8676L69.256 71.7796C69.544 69.7636 70.288 69.0436 71.32 69.0436C72.52 69.0436 73.48 69.9556 73.48 72.3316C73.48 74.9716 71.704 76.2436 70.048 76.5796L71.2 80.0116C73.96 79.3636 76.384 77.0116 76.384 72.3316Z" fill="black"></path></svg>