<svg width="233" height="159" viewBox="0 0 233 159" fill="none" xmlns="http://www.w3.org/2000/svg"><path d="M0 53L62.7514 24.4133C96.795 8.90448 135.888 8.90448 169.932 24.4133L232.683 53V117.634L159.648 143.602C131.636 153.562 101.047 153.562 73.0353 143.602L0 117.634V53Z" fill="#F24E1E"></path><path d="M80.3559 94.384C85.2759 94.384 87.4359 91.96 87.4359 89.08C87.4359 85.984 85.0359 84.352 81.5559 83.872L79.4679 83.584C78.0999 83.392 77.3079 82.768 77.3079 81.784C77.3079 80.752 78.0039 79.72 80.1639 79.72C82.2999 79.72 83.4039 80.92 83.9079 82.48L87.2679 81.304C86.5479 78.976 84.4599 76.816 80.1639 76.816C75.7959 76.816 73.5159 79.24 73.5159 81.928C73.5159 85.048 75.5799 86.512 78.8199 86.968L80.9079 87.256C82.9239 87.544 83.6439 88.288 83.6439 89.32C83.6439 90.52 82.7319 91.48 80.3559 91.48C77.7159 91.48 76.4439 89.704 76.1079 88.048L72.6759 89.2C73.3239 91.96 75.6759 94.384 80.3559 94.384ZM93.2375 94H97.4135L99.7415 85.528C100.582 82.504 100.846 81.544 101.038 80.776C101.278 81.568 101.542 82.504 102.358 85.552L104.59 94H108.67L113.278 77.2H109.414L107.95 83.848C107.014 88.144 106.87 88.792 106.654 89.68C106.462 88.84 106.222 87.88 105.55 85.312L103.414 77.2H98.6615L96.5255 85.312L95.3975 89.68C95.2055 88.864 95.0375 88.096 94.1255 83.848L92.6855 77.2H88.7015L93.2375 94ZM115.668 94H128.364V90.976H119.316V86.848H126.156V83.872H119.316V80.224H128.364V77.2H115.668V94ZM131.512 94H144.208V90.976H135.16V86.848H142V83.872H135.16V80.224L144.208 80.224V77.2L131.512 77.2V94ZM151.34 94L154.988 94V80.224H160.748V77.2H145.58V80.224H151.34V94Z" fill="black"></path></svg>