<svg width="183" height="161" viewBox="0 0 183 161" fill="none" xmlns="http://www.w3.org/2000/svg"><path fill-rule="evenodd" clip-rule="evenodd" d="M3.8147e-06 0H91.5H183C125.812 44.4791 125.812 115.646 183 160.125L91.5 160.125H3.8147e-06C57.1875 115.646 57.1875 44.4791 3.8147e-06 0Z" fill="#0FA958"></path><path d="M100 119.843L100 116.195L92.872 116.195L92.872 108.995L100 108.995L100 105.347L83.2 105.347L83.2 108.995L89.848 108.995L89.848 116.195L83.2 116.195L83.2 119.843L100 119.843ZM100 101.304L100 88.6083L96.976 88.6083L96.976 97.6563L92.848 97.6563L92.848 90.8163L89.872 90.8163L89.872 97.6563L86.224 97.6563L86.224 88.6083L83.2 88.6083L83.2 101.304L100 101.304ZM100 85.4606L100 72.7646L96.904 72.7646L96.904 81.8126L83.2 81.8126L83.2 85.4606L100 85.4606ZM100 70.5074L100 57.8114L96.904 57.8114L96.904 66.8594L83.2 66.8594L83.2 70.5074L100 70.5074ZM100.384 48.1254C100.384 42.4614 96.688 39.1494 91.648 39.1494C86.632 39.1494 82.816 42.5334 82.816 48.1254C82.816 53.7174 86.632 57.1014 91.648 57.1014C96.688 57.1014 100.384 53.7894 100.384 48.1254ZM97.36 48.1014C97.36 51.3894 94.912 53.2854 91.624 53.2854C88.288 53.2854 85.84 51.3894 85.84 48.1014C85.84 44.8374 88.288 42.9654 91.624 42.9654C94.912 42.9654 97.36 44.8374 97.36 48.1014Z" fill="black"></path></svg>