<svg width="241" height="134" viewBox="0 0 241 134" fill="none" xmlns="http://www.w3.org/2000/svg"><path d="M135.321 121.526C126.777 115.486 113.986 115.486 105.441 121.526C94.5435 129.23 81.2396 133.757 66.8785 133.757C29.9425 133.757 0 103.814 0 66.8785C0 29.9425 29.9425 0 66.8785 0C81.2396 0 94.5435 4.52655 105.441 12.2307C113.986 18.2711 126.777 18.2711 135.321 12.2307C146.219 4.52655 159.523 0 173.884 0C210.82 0 240.763 29.9425 240.763 66.8785C240.763 103.814 210.82 133.757 173.884 133.757C159.523 133.757 146.219 129.23 135.321 121.526Z" fill="#FFC700"></path><path d="M80.1449 77H83.7929V70.616H91.2089V67.592H83.7929V63.224H93.0569V60.2H80.1449V77ZM95.6605 77H99.3085V70.616H102.357C104.445 70.616 105.333 71.336 105.597 73.28L106.101 77H109.989L109.293 72.968C108.861 70.472 107.493 69.512 105.429 69.32C107.493 68.96 109.701 67.64 109.701 64.64C109.701 61.976 107.565 60.2 103.965 60.2L95.6605 60.2V77ZM99.3085 67.664V63.224H103.269C104.781 63.224 105.909 63.92 105.909 65.432C105.909 66.968 104.781 67.664 103.269 67.664H99.3085ZM113.075 77H125.771V73.976H116.723V69.848H123.563V66.872H116.723V63.224H125.771V60.2H113.075V77ZM135.254 77.384C140.174 77.384 142.334 74.96 142.334 72.08C142.334 68.984 139.934 67.352 136.454 66.872L134.366 66.584C132.998 66.392 132.206 65.768 132.206 64.784C132.206 63.752 132.902 62.72 135.062 62.72C137.198 62.72 138.302 63.92 138.806 65.48L142.166 64.304C141.446 61.976 139.358 59.816 135.062 59.816C130.694 59.816 128.414 62.24 128.414 64.928C128.414 68.048 130.478 69.512 133.718 69.968L135.806 70.256C137.822 70.544 138.542 71.288 138.542 72.32C138.542 73.52 137.63 74.48 135.254 74.48C132.614 74.48 131.342 72.704 131.006 71.048L127.574 72.2C128.222 74.96 130.574 77.384 135.254 77.384ZM145.348 77H148.996V69.872H156.196V77H159.844V60.2H156.196V66.848H148.996V60.2H145.348V77Z" fill="black"></path></svg>