<svg width="217" height="149" viewBox="0 0 217 149" fill="none" xmlns="http://www.w3.org/2000/svg"><path d="M0 49.6667L108.5 0L217 49.6667V110.236L108.5 149L0 110.236V49.6667Z" fill="#C7B9FF"></path><path d="M83.2582 86H86.9062V79.616H94.3222V76.592H86.9062V72.224H96.1702V69.2H83.2582V86ZM106.118 86.384C110.486 86.384 113.654 83.84 113.654 79.448V69.2H110.006V78.872C110.006 81.56 108.854 83.264 106.118 83.264C103.526 83.264 102.23 81.68 102.23 78.872V69.2H98.5818V79.448C98.5818 83.72 101.51 86.384 106.118 86.384ZM117.5 86H121.148V78.08V72.968L130.388 86H133.748V69.2H130.1V75.584V79.832L122.564 69.2H117.5V86Z" fill="black"></path></svg>