<svg width="214" height="160" viewBox="0 0 214 160" fill="none" xmlns="http://www.w3.org/2000/svg"><path d="M0 0L41.2513 -4.50788e-08C84.6395 -9.24927e-08 119.812 35.173 119.812 78.5612L119.812 81.1889C119.812 124.577 84.6395 159.75 41.2513 159.75L-1.70315e-07 159.75L0 0Z" fill="#C7B9FF"></path><path d="M213.002 159.75L171.751 159.75C128.362 159.75 93.1895 124.577 93.1895 81.1888L93.1895 78.5611C93.1895 35.173 128.362 -4.1209e-06 171.751 -2.74175e-06L213.002 -1.43051e-06L213.002 159.75Z" fill="#C7B9FF"></path><path d="M77.2926 84.384C82.9566 84.384 86.2686 80.688 86.2686 75.648C86.2686 70.632 82.8846 66.816 77.2926 66.816C71.7006 66.816 68.3166 70.632 68.3166 75.648C68.3166 80.688 71.6286 84.384 77.2926 84.384ZM77.3166 81.36C74.0286 81.36 72.1326 78.912 72.1326 75.624C72.1326 72.288 74.0286 69.84 77.3166 69.84C80.5806 69.84 82.4526 72.288 82.4526 75.624C82.4526 78.912 80.5806 81.36 77.3166 81.36ZM89.2933 84H92.9413V76.872H100.141V84H103.789V67.2H100.141V73.848H92.9413V67.2H89.2933V84ZM113.481 84H117.129V76.872H124.329V84H127.977V67.2H124.329V73.848H117.129V67.2L113.481 67.2V84ZM132.02 84H135.668V67.2H132.02V84Z" fill="#C7B9FF"></path><path d="M32.0473 87H44.7433V83.904H35.6953V70.2H32.0473V87ZM54.4293 87.384C60.0933 87.384 63.4053 83.688 63.4053 78.648C63.4053 73.632 60.0213 69.816 54.4293 69.816C48.8373 69.816 45.4533 73.632 45.4533 78.648C45.4533 83.688 48.7653 87.384 54.4293 87.384ZM54.4533 84.36C51.1653 84.36 49.2693 81.912 49.2693 78.624C49.2693 75.288 51.1653 72.84 54.4533 72.84C57.7173 72.84 59.5893 75.288 59.5893 78.624C59.5893 81.912 57.7173 84.36 54.4533 84.36ZM74.3981 87.384C80.0621 87.384 83.3741 83.688 83.3741 78.648C83.3741 73.632 79.9901 69.816 74.3981 69.816C68.8061 69.816 65.4221 73.632 65.4221 78.648C65.4221 83.688 68.7341 87.384 74.3981 87.384ZM74.4221 84.36C71.1341 84.36 69.2381 81.912 69.2381 78.624C69.2381 75.288 71.1341 72.84 74.4221 72.84C77.6861 72.84 79.5581 75.288 79.5581 78.624C79.5581 81.912 77.6861 84.36 74.4221 84.36ZM97.3188 87H101.903L94.5828 76.92L101.087 70.2H96.1908L90.0468 77.184V72.912V70.2H86.3988V87H90.0468V81.624L92.0868 79.512L97.3188 87ZM115.647 87.384C119.031 87.384 120.447 85.704 121.143 84.624V87H124.431V78.36H115.431V81.384H120.855C120.639 82.752 119.367 84.384 116.511 84.384C113.775 84.384 111.495 82.32 111.495 78.672C111.495 75 113.631 72.84 116.607 72.84C119.223 72.84 120.447 74.376 121.095 76.224L124.527 74.952C123.639 72.216 121.167 69.816 116.607 69.816C111.519 69.816 107.703 73.68 107.703 78.672C107.703 84.288 111.471 87.384 115.647 87.384ZM135.781 87.384C141.445 87.384 144.757 83.688 144.757 78.648C144.757 73.632 141.373 69.816 135.781 69.816C130.189 69.816 126.805 73.632 126.805 78.648C126.805 83.688 130.117 87.384 135.781 87.384ZM135.805 84.36C132.517 84.36 130.621 81.912 130.621 78.624C130.621 75.288 132.517 72.84 135.805 72.84C139.069 72.84 140.941 75.288 140.941 78.624C140.941 81.912 139.069 84.36 135.805 84.36ZM155.75 87.384C161.414 87.384 164.726 83.688 164.726 78.648C164.726 73.632 161.342 69.816 155.75 69.816C150.158 69.816 146.774 73.632 146.774 78.648C146.774 83.688 150.086 87.384 155.75 87.384ZM155.774 84.36C152.486 84.36 150.59 81.912 150.59 78.624C150.59 75.288 152.486 72.84 155.774 72.84C159.038 72.84 160.91 75.288 160.91 78.624C160.91 81.912 159.038 84.36 155.774 84.36ZM167.75 87H174.086C178.886 87 182.966 83.88 182.966 78.48C182.966 73.224 178.886 70.2 174.086 70.2H167.75V87ZM171.398 83.976V73.224H174.062C177.518 73.224 179.198 75.36 179.198 78.552C179.198 82.104 177.494 83.976 173.918 83.976H171.398Z" fill="black"></path></svg>