<svg width="153" height="153" viewBox="0 0 153 153" fill="none" xmlns="http://www.w3.org/2000/svg"><rect width="153" height="153" rx="39.2806" fill="#FFC700"></rect><path d="M51.2926 84.384C56.9566 84.384 60.2686 80.688 60.2686 75.648C60.2686 70.632 56.8846 66.816 51.2926 66.816C45.7006 66.816 42.3166 70.632 42.3166 75.648C42.3166 80.688 45.6286 84.384 51.2926 84.384ZM51.3166 81.36C48.0286 81.36 46.1326 78.912 46.1326 75.624C46.1326 72.288 48.0286 69.84 51.3166 69.84C54.5806 69.84 56.4526 72.288 56.4526 75.624C56.4526 78.912 54.5806 81.36 51.3166 81.36ZM63.2933 84H66.9413V76.872H74.1413V84H77.7893V67.2H74.1413V73.848H66.9413V67.2H63.2933V84ZM87.4808 84H91.1288V76.872H98.3288V84H101.977V67.2H98.3288V73.848H91.1288V67.2L87.4808 67.2V84ZM106.02 84H109.668V67.2H106.02V84Z" fill="black"></path></svg>